<svg xmlns="http://www.w3.org/2000/svg" width="1441" height="699" fill="none" viewBox="0 0 1441 699"><g filter="url(#filter0_f_278_6)"><path fill="#3361AD" d="M627.821 466.936C602.02 452.639 585.26 423.062 575.424 305.065C567.733 212.807 651.423 126.421 697.12 92.3759L830.453 111.75C912.308 126.219 1078.22 153.227 1087.03 145.511C1098.04 135.866 1223.09 182.928 1231.82 173.385C1238.8 165.75 1307.43 201.673 1340.87 220.589C1356.56 230.569 1387.41 258.793 1385.22 291.847C1382.49 333.164 1330.12 287.438 1330.46 346.354C1330.8 405.271 1296.27 400.516 1303.26 454.56C1310.24 508.603 1178.42 515.052 1182.83 459.929C1187.23 404.806 1098.13 445.968 1053.04 447.978C1007.95 449.989 1012.49 513.295 1020.87 547.251C1029.24 581.207 921.017 603.769 868.506 606.11C826.498 607.983 804.177 574.267 798.268 557.175C789.422 546.89 776.003 509.306 793.1 441.259C810.197 373.211 769.201 366.991 746.565 372.387C715.584 408.669 648.462 478.375 627.821 466.936Z"/></g><g filter="url(#filter1_f_278_6)"><path fill="#6062AC" d="M86 329.5C54.4 308.3 63.5 246.333 72 218L97 194L182 159.5L355 120.5L632 76.5L643 120.5C646 136.167 655.5 168.1 669.5 170.5C687 173.5 721.5 218 702.5 265C683.5 312 628.5 273 643 329.5C657.5 386 573.5 357.5 580 400C586.5 442.5 536 439.5 526.5 466C517 492.5 470 491.5 444.5 496C419 500.5 385 479 396 439.5C407 400 344 387.5 308 384.5C272 381.5 339.5 449 248 479C156.5 509 220 442.5 138 430C56 417.5 125.5 356 86 329.5Z"/><path stroke="#6AC59D" d="M86 329.5C54.4 308.3 63.5 246.333 72 218L97 194L182 159.5L355 120.5L632 76.5L643 120.5C646 136.167 655.5 168.1 669.5 170.5C687 173.5 721.5 218 702.5 265C683.5 312 628.5 273 643 329.5C657.5 386 573.5 357.5 580 400C586.5 442.5 536 439.5 526.5 466C517 492.5 470 491.5 444.5 496C419 500.5 385 479 396 439.5C407 400 344 387.5 308 384.5C272 381.5 339.5 449 248 479C156.5 509 220 442.5 138 430C56 417.5 125.5 356 86 329.5Z"/></g><path stroke="#6AC5AA" stroke-linecap="round" stroke-width="7" d="M722 61L324.493 132.024C214.662 144.953 -5 203.048 -5 332"/><path stroke="#6AC5AA" stroke-linecap="round" stroke-width="7" d="M725 60L1230.71 158.225C1302.14 173.001 1445 228.242 1445 331"/><g filter="url(#filter2_f_278_6)"><path fill="#6AC59D" d="M421 203.612C444.452 175.748 402.167 158.833 402 133.5L726 74L1158.5 154C1170.5 188.667 1184.8 248.6 1146 211C1097.5 164 1061 176 1061 237.5C1061 299 973 226.5 970 292.5C967 358.5 794.944 341.365 819 281.5C831.791 249.668 724.103 214.021 710.5 261C687.828 339.297 655.5 316 633.5 358.5C611.5 401 556.5 393 525 382C493.5 371 521.659 299.049 461.5 308.612C411.759 316.519 373.333 260.248 421 203.612Z"/><path stroke="#6AC59D" d="M421 203.612C444.452 175.748 402.167 158.833 402 133.5L726 74L1158.5 154C1170.5 188.667 1184.8 248.6 1146 211C1097.5 164 1061 176 1061 237.5C1061 299 973 226.5 970 292.5C967 358.5 794.944 341.365 819 281.5C831.791 249.668 724.103 214.021 710.5 261C687.828 339.297 655.5 316 633.5 358.5C611.5 401 556.5 393 525 382C493.5 371 521.659 299.049 461.5 308.612C411.759 316.519 373.333 260.248 421 203.612Z"/></g><defs><filter id="filter0_f_278_6" width="994.404" height="697.809" x="482.928" y=".376" color-interpolation-filters="sRGB" filterUnits="userSpaceOnUse"><feFlood flood-opacity="0" result="BackgroundImageFix"/><feBlend in="SourceGraphic" in2="BackgroundImageFix" mode="normal" result="shape"/><feGaussianBlur result="effect1_foregroundBlur_278_6" stdDeviation="46"/></filter><filter id="filter1_f_278_6" width="733.142" height="509.155" x="19.405" y="31.934" color-interpolation-filters="sRGB" filterUnits="userSpaceOnUse"><feFlood flood-opacity="0" result="BackgroundImageFix"/><feBlend in="SourceGraphic" in2="BackgroundImageFix" mode="normal" result="shape"/><feGaussianBlur result="effect1_foregroundBlur_278_6" stdDeviation="22"/></filter><filter id="filter2_f_278_6" width="901.07" height="445.762" x="334.736" y="9.492" color-interpolation-filters="sRGB" filterUnits="userSpaceOnUse"><feFlood flood-opacity="0" result="BackgroundImageFix"/><feBlend in="SourceGraphic" in2="BackgroundImageFix" mode="normal" result="shape"/><feGaussianBlur result="effect1_foregroundBlur_278_6" stdDeviation="32"/></filter></defs></svg>