<svg xmlns="http://www.w3.org/2000/svg" width="360" height="412" fill="none" viewBox="0 0 360 412"><g filter="url(#filter0_f_367_3)"><path fill="#3361AD" d="M-0.229627 257.782C-11.6349 251.462 -19.0436 238.388 -23.3916 186.228C-26.7911 145.445 10.2034 107.259 30.4038 92.2096L89.3426 100.774C125.526 107.17 198.867 119.109 202.76 115.698C207.626 111.434 262.907 132.238 266.764 128.019C269.849 124.644 300.186 140.524 314.969 148.886C321.907 153.297 335.542 165.774 334.576 180.385C333.367 198.649 310.219 178.436 310.369 204.479C310.519 230.523 295.257 228.422 298.344 252.311C301.432 276.2 243.161 279.051 245.108 254.684C247.055 230.318 207.67 248.513 187.738 249.402C167.806 250.29 169.812 278.275 173.515 293.285C177.218 308.295 129.376 318.268 106.164 319.303C87.5944 320.131 77.7278 305.227 75.1156 297.672C71.2051 293.125 65.2734 276.511 72.8312 246.431C80.3889 216.351 62.2664 213.602 52.2605 215.987C38.5656 232.025 8.89461 262.838 -0.229627 257.782Z"/></g><path stroke="#6AC5AA" stroke-linecap="round" stroke-width="7" d="M43 78L266.357 121.494C297.905 128.037 361 152.498 361 198"/><defs><filter id="filter0_f_367_3" width="542.235" height="411.126" x="-115.611" y=".209" color-interpolation-filters="sRGB" filterUnits="userSpaceOnUse"><feFlood flood-opacity="0" result="BackgroundImageFix"/><feBlend in="SourceGraphic" in2="BackgroundImageFix" mode="normal" result="shape"/><feGaussianBlur result="effect1_foregroundBlur_367_3" stdDeviation="46"/></filter></defs></svg>